FrancaisAudiardLe Cave Se Rebiffe - Fr -Gabin-Audiard.avi
Format                                   : AVI
Format/Info                              : Audio Video Interleave
File size                                : 640 MiB
Duration                                 : 1h 33mn
Overall bit rate                         : 958 Kbps
Writing library                          : VirtualDub build 13870/release

Video
ID                                       : 0
Format                                   : MPEG-4 Visual
Format settings, BVOP                    : Yes
Format settings, QPel                    : No
Format settings, GMC                     : No warppoints
Format settings, Matrix                  : Default (H.263)
Codec ID                                 : DIVX
Codec ID/Info                            : Project Mayo
Codec ID/Hint                            : DivX 4
Duration                                 : 1h 33mn
Bit rate                                 : 886 Kbps
Width                                    : 584 pixels
Height                                   : 360 pixels
Display aspect ratio                     : 1.622
Frame rate                               : 25.000 fps
Color space                              : YUV
Chroma subsampling                       : 4:2:0
Bit depth                                : 8 bits
Scan type                                : Progressive
Compression mode                         : Lossy
Bits/(Pixel*Frame)                       : 0.169
Stream size                              : 591 MiB (92%)

Audio
ID                                       : 1
Format                                   : WMA
Format version                           : Version 2
Codec ID                                 : 161
Codec ID/Info                            : Windows Media Audio
Duration                                 : 1h 33mn
Bit rate                                 : 64.0 Kbps
Channel(s)                               : 2 channels
Sampling rate                            : 32.0 KHz
Bit depth                                : 16 bits
Stream size                              : 42.7 MiB (7%)
Interleave, duration                     : 64 ms (1.60 video frames)
Interleave, preload duration             : 448 ms
